# xmcd
#
# Track frame offsets:
#	150
#	3581
#	18094
#	31210
#	47031
#	63398
#	77857
#	105567
#	120251
#
# Disc length: 1823 seconds
#
# Revision: 0
# Processed by: cddbd v1.5.2PL0 Copyright (c) Steve Scherf et al.
# Submitted via: EZCDAudioConverter 3.1.7.1
#
DISCID=61071d09
DTITLE=Scotch Hollow - Raging Bull in a Chicken Wire Pen
DYEAR=2015
DGENRE=Blues
TTITLE0=Intro
TTITLE1=Burn Cruise
TTITLE2=No Trying
TTITLE3=Shoe String Blues
TTITLE4=Leaving Song
TTITLE5=The Curtain
TTITLE6=W.W.W. Blues
TTITLE7=Raging Bull in a Chicken Wire Pen
TTITLE8=Blue Blue Sky
EXTD=
EXTT0=
EXTT1=
EXTT2=
EXTT3=
EXTT4=
EXTT5=
EXTT6=
EXTT7=
EXTT8=
PLAYORDER=
